<svg xmlns="http://www.w3.org/2000/svg" viewBox="0 0 841.73 344.33"><defs><style>.cls-1{fill:#272727;}</style></defs><title>logo</title><g id="Livello_2" data-name="Livello 2"><g id="Livello_1-2" data-name="Livello 1"><path class="cls-1" d="M140.91,82.25a3.66,3.66,0,0,0,1.14.14h3.41a86.5,86.5,0,0,0,22.3-3,81.29,81.29,0,0,0,20.31-8.31,50.14,50.14,0,0,0,14.77-12.78,26.47,26.47,0,0,0,5.68-16.41,17.15,17.15,0,0,0-2.13-8.59A18.79,18.79,0,0,0,200.5,27a28.54,28.54,0,0,0-9.09-3.91,47.73,47.73,0,0,0-11.72-1.35,84.57,84.57,0,0,0-21.87,2.84,97.16,97.16,0,0,0-20,7.74A93.8,93.8,0,0,0,120.6,43.82a83.47,83.47,0,0,0-13.5,14.35A66.46,66.46,0,0,0,98.3,74.29a47.68,47.68,0,0,0-3.12,16.76A41.07,41.07,0,0,0,98.3,107a178.75,178.75,0,0,1,18.32,1.42,68,68,0,0,1,14.77,3.48,26.06,26.06,0,0,1,9.8,6,12.45,12.45,0,0,1,3.55,8.95,9.92,9.92,0,0,1-4.26,8.67,18.13,18.13,0,0,1-10.65,3,34.8,34.8,0,0,1-10.51-1.71A47.84,47.84,0,0,1,108.88,132a57.94,57.94,0,0,1-9.66-7.39,61.8,61.8,0,0,1-8.31-9.59,88,88,0,0,0-29.19,7.32A78.47,78.47,0,0,0,38.57,138,71.52,71.52,0,0,0,23.3,160a63.67,63.67,0,0,0-5.54,26.21,52.08,52.08,0,0,0,3.76,20.24,40.64,40.64,0,0,0,11.22,15.41,51.16,51.16,0,0,0,18.61,9.8,88.35,88.35,0,0,0,25.78,3.41,95.75,95.75,0,0,0,30.75-4.9,133.3,133.3,0,0,0,26.92-12.43,152.74,152.74,0,0,0,22.44-16.55q10.08-9,17.54-17.12a173.57,173.57,0,0,0,12-14.28q4.55-6.18,6-8l5.11,4q-3.27,4.69-8.81,12.29a181.42,181.42,0,0,1-13.42,16.12,194.39,194.39,0,0,1-18.18,17.12,143.08,143.08,0,0,1-23,15.55,136.06,136.06,0,0,1-27.77,11.29,117.24,117.24,0,0,1-32.53,4.33q-19.18,0-33.1-4.83T18,224.65A51.12,51.12,0,0,1,4.4,205.76,59.08,59.08,0,0,1,0,183.1a71.25,71.25,0,0,1,2.13-17A72.24,72.24,0,0,1,20,133.53a75.94,75.94,0,0,1,16.48-13.07,92.18,92.18,0,0,1,21.88-9.23A120.7,120.7,0,0,1,86.08,107a52.87,52.87,0,0,1-4-10.72,46.93,46.93,0,0,1-1.42-11.58A57.72,57.72,0,0,1,84.38,64a67,67,0,0,1,10.16-17.9,78,78,0,0,1,15.2-14.56,103.37,103.37,0,0,1,18.68-10.87,104.64,104.64,0,0,1,20.67-6.82,99.23,99.23,0,0,1,21.24-2.34,76.63,76.63,0,0,1,19.25,2.2,45.56,45.56,0,0,1,14.28,6.18,28.25,28.25,0,0,1,8.95,9.59,24.85,24.85,0,0,1,3.13,12.29,32.48,32.48,0,0,1-3.05,13.92,43.08,43.08,0,0,1-8.24,11.86,60.87,60.87,0,0,1-12.07,9.52,83.16,83.16,0,0,1-14.63,7,95.76,95.76,0,0,1-16,4.33A89.32,89.32,0,0,1,146,89.92q-2.56,0-4.12-.14c-1-.09-1.66-.14-1.85-.14Zm-3.69,44.32a6.66,6.66,0,0,0-3.05-5.61,23.84,23.84,0,0,0-8-3.48,74.5,74.5,0,0,0-11.08-1.92q-6.18-.64-12.57-.78a39.49,39.49,0,0,0,6,7,42.81,42.81,0,0,0,6.89,5.19,33.31,33.31,0,0,0,7.17,3.27,23,23,0,0,0,6.89,1.14A9.62,9.62,0,0,0,135.3,130,4.15,4.15,0,0,0,137.22,126.57Z"/><path class="cls-1" d="M295.6,8.1a13.81,13.81,0,0,1,8.31,2.42q3.34,2.42,3.34,8.81a38.62,38.62,0,0,1-1.78,10.51,119.24,119.24,0,0,1-4.83,13.28q-3.06,7.17-7.17,15.06t-8.88,15.7q-4.76,7.81-9.94,15.2t-10.3,13.64Q254.13,115.35,246.67,124t-12.86,14.7q-5.4,6-9.09,9.8T218.19,155q-2.84,2.7-5.26,4.9t-5,4.9a46.56,46.56,0,0,0-1.07,10.3q.07,4.9.07,9,0,12.36,4,18.32a12.72,12.72,0,0,0,11.22,6,21.36,21.36,0,0,0,9.73-2.49,53.26,53.26,0,0,0,9.73-6.46,87.82,87.82,0,0,0,9.38-9q4.54-5,8.59-10.23t7.32-10l5.68-8.38,5.26,4q-.43.57-2.77,4.47t-6.18,9.45q-3.83,5.54-9.09,11.86a106.37,106.37,0,0,1-11.36,11.72,65.38,65.38,0,0,1-12.86,8.95,28.71,28.71,0,0,1-24.86,1.35,24.55,24.55,0,0,1-9.37-7,36.44,36.44,0,0,1-6.53-12.15,55.92,55.92,0,0,1-2.49-17.76,128,128,0,0,1,3.05-27.06,211.23,211.23,0,0,1,8.31-28.41A258.31,258.31,0,0,1,216.06,93q7.1-13.92,15.13-26.49a249.14,249.14,0,0,1,16.76-23.3,180.3,180.3,0,0,1,17.19-18.54A88.31,88.31,0,0,1,281.4,12.5Q289.21,8.1,295.6,8.1Zm-85.09,144q12.07-12.5,23.37-25.36T255,101.35q9.87-12.57,18.11-24.43a263.4,263.4,0,0,0,14.06-22.37,148,148,0,0,0,9.09-19.18q3.27-8.66,3.27-14.92a6.61,6.61,0,0,0-1.14-3.05,3.22,3.22,0,0,0-2.7-1.92q-4.4,0-11.65,5.82a118.25,118.25,0,0,0-15.7,15.84,275.33,275.33,0,0,0-17.47,23.37,296.5,296.5,0,0,0-17,28.55,302.37,302.37,0,0,0-14.21,31.39A185.4,185.4,0,0,0,210.52,152.13Z"/><path class="cls-1" d="M283.39,182.39q-.29,1.71-.43,3.41t-.14,3.41a31.43,31.43,0,0,0,1.49,9.73,23.91,23.91,0,0,0,4.4,8.1,20.33,20.33,0,0,0,7.24,5.47,23.4,23.4,0,0,0,9.87,2q18.61,0,35.94-12.64t34.52-40.06l4.83,4.26a170.17,170.17,0,0,1-19,26.35,113.92,113.92,0,0,1-19.25,17.4A71.81,71.81,0,0,1,324,219.47a57.28,57.28,0,0,1-17.61,3,53.33,53.33,0,0,1-12.93-1.71,38.23,38.23,0,0,1-12.57-5.68,31.44,31.44,0,0,1-9.52-10.65q-3.76-6.68-3.76-16.62a59.15,59.15,0,0,1,3.62-20.53,83.34,83.34,0,0,1,9.45-18.4A93,93,0,0,1,294,133.31a107.86,107.86,0,0,1,15.27-12,80.4,80.4,0,0,1,15.13-7.74,37.89,37.89,0,0,1,13.07-2.77,26.45,26.45,0,0,1,7.53,1.14,20.34,20.34,0,0,1,6.89,3.55,17.91,17.91,0,0,1,5,6.39,21.74,21.74,0,0,1,1.92,9.52,29.88,29.88,0,0,1-3.48,14.13,48.13,48.13,0,0,1-9.3,12.22,70.61,70.61,0,0,1-13.49,10.09,103.58,103.58,0,0,1-16.05,7.6,122.45,122.45,0,0,1-16.9,5A83.73,83.73,0,0,1,283.39,182.39Zm1.14-6.11a77.1,77.1,0,0,0,17.9-4A79.09,79.09,0,0,0,317.76,165a80.2,80.2,0,0,0,12.43-9.45,67.4,67.4,0,0,0,9.16-10.37A52.58,52.58,0,0,0,345,135.09a23.11,23.11,0,0,0,2-8.67,8.76,8.76,0,0,0-2.06-6.11,6.41,6.41,0,0,0-4.9-2.27q-6.25,0-14.06,4.47a74.25,74.25,0,0,0-15.63,12.36,114.63,114.63,0,0,0-14.7,18.54A106.58,106.58,0,0,0,284.52,176.28Z"/><path class="cls-1" d="M430.41,209.95a77.39,77.39,0,0,1-15.27,8A41.85,41.85,0,0,1,400,221a38.68,38.68,0,0,1-10.8-1.56,27.17,27.17,0,0,1-9.8-5.18,26.73,26.73,0,0,1-7.17-9.59q-2.77-6-2.77-14.77a55.64,55.64,0,0,1,3.83-20.46,76.11,76.11,0,0,1,10.23-18.25,95.84,95.84,0,0,1,14.63-15.41,109,109,0,0,1,17-11.86,90.9,90.9,0,0,1,17.4-7.6,53.51,53.51,0,0,1,15.77-2.7,41.13,41.13,0,0,1,11.86,1.49,33,33,0,0,1,8.31,3.69,21.58,21.58,0,0,1,5.4,4.76,39.51,39.51,0,0,1,3.27,4.83l7.67-10.08,4.69,3.13q0,.14-2.27,4.47t-6,11.58q-3.69,7.24-8.59,17t-10.23,20.67q-5.33,10.94-10.8,22.59T441.2,220.6q12.92-7.39,22.73-14.21a179.6,179.6,0,0,0,17.54-13.78,138.29,138.29,0,0,0,14-14.49,187.45,187.45,0,0,0,12.07-16.34l5.26,4a144.49,144.49,0,0,1-12.29,17.12A141.23,141.23,0,0,1,485,198.51a230.32,230.32,0,0,1-20.74,15.91q-11.86,8.17-28.2,18-13.5,33.1-26,54.76t-23.65,34.3q-11.15,12.64-20.74,17.76t-17.26,5.11a32.21,32.21,0,0,1-6.75-.78,17.77,17.77,0,0,1-6.75-3.05,17.55,17.55,0,0,1-5.18-6.25A22.23,22.23,0,0,1,327.71,324,49,49,0,0,1,334,300.43q6.32-11.65,18.32-23.15a202.39,202.39,0,0,1,29.4-22.87q17.4-11.37,39.42-22.87,2.7-6.11,5-11.58T430.41,209.95Zm-82,127.13q5.4,0,11.22-4a62.86,62.86,0,0,0,11.79-10.87,138.94,138.94,0,0,0,11.79-16q5.82-9.09,11.51-19.39t10.87-21.09q5.18-10.8,9.87-21.17a223.88,223.88,0,0,0-36.15,23.08,189.62,189.62,0,0,0-24.5,22.94q-9.52,10.94-13.85,19.75t-4.33,13.49a16.38,16.38,0,0,0,2.56,9.52Q341.77,337.08,348.45,337.08Zm89.35-142.76q3.84-7.25,7.6-14.28T453.21,166q4-7,8.67-14.42t10.3-15.34a14,14,0,0,0-1.42-4.4,15.38,15.38,0,0,0-3.12-4.19,16,16,0,0,0-5.11-3.2,19.46,19.46,0,0,0-7.39-1.28,55.05,55.05,0,0,0-11,1.28,61.15,61.15,0,0,0-13,4.4,76.67,76.67,0,0,0-13.85,8.38,82.87,82.87,0,0,0-13.71,13.21,101.73,101.73,0,0,0-15.06,23.23q-5.26,11.58-5.26,21.09,0,9.24,4.69,14t12.79,4.76q8.52,0,18.11-5.26A96.43,96.43,0,0,0,437.79,194.32Z"/><path class="cls-1" d="M597.17,165.77q-2.13,3.13-5,8.45t-6.75,11.51q-3.83,6.18-8.45,12.57a79.16,79.16,0,0,1-10.08,11.51A52,52,0,0,1,555,218.19a29.55,29.55,0,0,1-13.64,3.27,23.25,23.25,0,0,1-7.53-1.21,16.88,16.88,0,0,1-6.25-3.76,18.13,18.13,0,0,1-4.26-6.32,23,23,0,0,1-1.56-8.88,42.49,42.49,0,0,1,2.77-14.56A123.41,123.41,0,0,1,531,172q3.69-7.1,7.39-13a102.93,102.93,0,0,0,5.4-9.45,14.61,14.61,0,0,0,1.7-6.11,4.91,4.91,0,0,0-1.21-3.27,19.11,19.11,0,0,0-3-2.77q-1.78-1.35-3.69-2.84a13,13,0,0,1-3.2-3.62q-3.55,5.68-7.25,11.51-3.27,5-7.1,11.15t-7.39,12.15l-5.11-4,30.4-47.59,4.12,2.13q-.29.85-.92,2.7a12.09,12.09,0,0,0-.64,4,9.57,9.57,0,0,0,.5,3.05,6.15,6.15,0,0,0,2.06,2.77q5.68,5.11,8.95,7.88a55.34,55.34,0,0,1,4.76,4.4,8.5,8.5,0,0,1,1.85,2.7,9,9,0,0,1,.36,2.77,18.56,18.56,0,0,1-.57,4.12,43.37,43.37,0,0,1-1.92,5.82q-1.35,3.41-3.69,8t-5.9,10.73q-2.13,3.69-4.19,7.46t-3.69,7.6a54.11,54.11,0,0,0-2.63,7.67,29.36,29.36,0,0,0-1,7.39,10.11,10.11,0,0,0,.78,4.33,6,6,0,0,0,2.06,2.49,7.45,7.45,0,0,0,2.77,1.14,15.39,15.39,0,0,0,2.91.28,17.93,17.93,0,0,0,9.3-2.77,49,49,0,0,0,9.09-7.17,87,87,0,0,0,8.67-10q4.19-5.61,8-11.43t7.1-11.15q3.27-5.33,5.82-9.3Z"/><path class="cls-1" d="M704.85,120.32Q703,124,699.66,130t-7.17,13.14q-3.84,7.17-7.74,15t-7.1,15.27a146.65,146.65,0,0,0-5.26,14.06,38.68,38.68,0,0,0-2.06,11.15q0,4.55,1.78,5.89a7.41,7.41,0,0,0,4.62,1.35,17.3,17.3,0,0,0,8.45-2.42,45.5,45.5,0,0,0,8.52-6.25,84.89,84.89,0,0,0,8.17-8.67q4-4.83,7.46-9.73t6.32-9.37l4.83-7.6,5.11,4q-2.42,4.55-5.68,9.8t-7.17,10.58a123.65,123.65,0,0,1-8.45,10.3,72.49,72.49,0,0,1-9.59,8.81,46.74,46.74,0,0,1-10.58,6.11,29.68,29.68,0,0,1-11.36,2.27q-8.52,0-12.5-5.11t-4-13.21c0-.38,0-1.21.07-2.49a15.37,15.37,0,0,1,.36-3.05,122.16,122.16,0,0,1-13.57,14.77,71.52,71.52,0,0,1-12.5,9.23,44.65,44.65,0,0,1-22.37,6.11,28.81,28.81,0,0,1-10.16-1.78,24.69,24.69,0,0,1-8.38-5.18,23.88,23.88,0,0,1-5.68-8.38A29.9,29.9,0,0,1,582,193a57.46,57.46,0,0,1,3.62-18.54q3.62-10.44,12.86-22.52a105.94,105.94,0,0,1,16.26-17.47,96,96,0,0,1,16.62-11.43,69.43,69.43,0,0,1,15.55-6.18,55.19,55.19,0,0,1,13.21-1.85q13.07,0,19.75,4.33t8.1,13.28q2.84-3.55,6-7.1l6.39-7.24Zm-43.61,54q1.84-3,4.54-7.6t5.68-9.52q3-4.9,5.82-9.45t5-7.67a37.92,37.92,0,0,0-.36-4.12,16.52,16.52,0,0,0-1.92-5.75,13.66,13.66,0,0,0-5-5Q671.61,123,665.5,123a41.61,41.61,0,0,0-9.87,1.35A53.55,53.55,0,0,0,644,128.91a76.79,76.79,0,0,0-12.71,8.45,94.44,94.44,0,0,0-13.07,13.07,103.9,103.9,0,0,0-15.13,23.65q-5.33,11.86-5.33,21.38,0,8.1,3.69,12.5t10.51,4.4a31.71,31.71,0,0,0,14.63-3.48,56.52,56.52,0,0,0,12.78-9,113.48,113.48,0,0,0,11.36-12.29Q656.12,180.83,661.24,174.29Z"/><path class="cls-1" d="M722,204.69q4.54,3.55,12.07,3.55a45.16,45.16,0,0,0,15.27-2.56,60.51,60.51,0,0,0,13.42-6.75,81.65,81.65,0,0,0,11.51-9.3,117.53,117.53,0,0,0,9.45-10.3q4.19-5.18,7.39-9.8t5.18-7.74h8q-2,3.41-5.47,8.74t-8.24,11.29a152.39,152.39,0,0,1-10.72,12,85.62,85.62,0,0,1-13.14,10.87,74,74,0,0,1-15.27,7.88,48.25,48.25,0,0,1-17.19,3.05,32.38,32.38,0,0,1-7.74-.92,29,29,0,0,1-7.32-2.91q-4.69,11.51-9.16,22.59t-8.52,21l-7.46,18.32q-3.41,8.38-6,14.56t-4,9.8q-1.42,3.62-1.56,3.76l-14.92-7.39q7.25-17,13-31.25t10.65-26.56q4.9-12.36,9.23-23.23t8.74-21.09a26,26,0,0,1-3.34-6.39,29.61,29.61,0,0,1-1.35-5.11,6.78,6.78,0,0,1,1.78-5.47,7,7,0,0,1,5.33-2.2,7.72,7.72,0,0,1,5,1.85q4.26-10.23,7.6-18l5.61-13q2.56-6.11,4.55-10.65Q746.75,104.27,757.33,83t19.53-36.08a219.43,219.43,0,0,1,16.34-24A106.21,106.21,0,0,1,806.63,8.67a37.93,37.93,0,0,1,10.87-6.89A25.47,25.47,0,0,1,826.16,0a19.25,19.25,0,0,1,10.58,2.77q4.33,2.77,4.9,9.45T839.3,28.69a162.3,162.3,0,0,1-8,21.09A238.56,238.56,0,0,1,819.62,72.3Q812.94,83.67,806,93.18a380.56,380.56,0,0,1-23.94,29.69q-10.73,11.79-18.82,19a115.32,115.32,0,0,1-13.5,10.72q-5.4,3.48-8,4.76ZM832.83,14.35a10.36,10.36,0,0,0-1.07-4.19q-.93-1.77-3.76-1.78a16.65,16.65,0,0,0-4.4.78,22.29,22.29,0,0,0-6.32,3.34A53.19,53.19,0,0,0,809.11,20,114.56,114.56,0,0,0,799,33.38q-5.61,8.38-12.22,20.74T772.6,84q-5,11.08-11.51,26.92t-14.35,34.3a120.08,120.08,0,0,0,14-11.72q7.32-7,14.77-15.48t14.7-18q7.25-9.52,13.78-19.32t12-19.46q5.47-9.66,9.38-18.4a111.65,111.65,0,0,0,5.9-16.05A36.93,36.93,0,0,0,832.83,14.35Z"/></g></g></svg>